<svg id="Layer_1" data-name="Layer 1" xmlns="http://www.w3.org/2000/svg" xmlns:xlink="http://www.w3.org/1999/xlink" viewBox="0 0 180 70"><defs><style>.cls-1{font-size:64.34px;fill:#231f20;font-family:#9Slide04SFUTimesTen-Bold, "#9Slide04 SFU TimesTen Bold";font-weight:700;}.cls-2{fill:url(#Earthtone_26_Radial);}.cls-3{fill:url(#Earthtone_26_Radial-2);}.cls-4{fill:url(#Earthtone_26_Radial-3);}</style><radialGradient id="Earthtone_26_Radial" cx="163.11" cy="61.91" r="9.26" gradientTransform="translate(0 3.77) scale(1 0.92)" gradientUnits="userSpaceOnUse"><stop offset="0" stop-color="#7d3825"/><stop offset="0.54" stop-color="#4f0000"/><stop offset="1" stop-color="#2d0000"/></radialGradient><radialGradient id="Earthtone_26_Radial-2" cx="183.62" cy="61.58" r="9.88" xlink:href="#Earthtone_26_Radial"/><radialGradient id="Earthtone_26_Radial-3" cx="204.88" cy="57.62" r="12.16" xlink:href="#Earthtone_26_Radial"/></defs><text class="cls-1" transform="translate(0 54.37) scale(1.25 1)">KL</text><path class="cls-2" d="M163.32,62.9a5.73,5.73,0,0,0-.12,1.22c0,1.26.48,1.88,1.44,1.88q2.24,0,3.54-2.85l2.33,1.21,1.38,1.37q-2,4.2-7.21,4.2a8.85,8.85,0,0,1-6.26-2.32,9.17,9.17,0,0,1-2.83-4.86l-.14-.56a.63.63,0,0,1-.08-.28l-.31-1.07a3.94,3.94,0,0,0-.81-1.36,1.39,1.39,0,0,1,.45-.18,1.09,1.09,0,0,1,.4-.07,2.81,2.81,0,0,1,.45,0,7,7,0,0,1,2-4.93,7.69,7.69,0,0,1,5.86-2.24A8.06,8.06,0,0,1,172,60.8v2.1Zm6.83-1.77V59.68q0-7.16-6.72-7.16a7.28,7.28,0,0,0-5.33,2A7.16,7.16,0,0,0,156,59.34a1.59,1.59,0,0,1,1.12.75,2.47,2.47,0,0,1,1.27-1.72,2.18,2.18,0,0,1,1.28,1.75,1.82,1.82,0,0,1,.53-.47,1.47,1.47,0,0,1,.58-.28V57.58a5.51,5.51,0,0,1,.51-2.57,2.49,2.49,0,0,1,2.35-1.32q3,0,3,3.75V59.9h-4.82l.24-.38a2.85,2.85,0,0,0-2.59,1.35,2.52,2.52,0,0,0-1.08-1.9,2.61,2.61,0,0,0-1.09,1.94,2.07,2.07,0,0,0-2-1.32h-.19a.38.38,0,0,0-.24.06,4.58,4.58,0,0,1,.85,1.64l.43,1.86Q157.7,68.4,164,68.4a6.32,6.32,0,0,0,6.1-3.75l-1.7-.89a4.31,4.31,0,0,1-4.28,2.83,2.51,2.51,0,0,1-2.24-1.11,4.53,4.53,0,0,1-.61-2.51,5.53,5.53,0,0,1,.26-1.84Zm-1.58,3.23.89.44A6,6,0,0,1,164,68q-5.86,0-7.37-4.93l-.38-1.54a4.16,4.16,0,0,0-.55-1.39,1.61,1.61,0,0,1,1.13.61,4.27,4.27,0,0,1,.41.53l.28.43a4.09,4.09,0,0,1,.28-1.11,2.93,2.93,0,0,1,.65-1,2.83,2.83,0,0,1,.92,2.13,2.08,2.08,0,0,1,1.94-1.57,9,9,0,0,0-.47,2.93,4.8,4.8,0,0,0,.69,2.75A3,3,0,0,0,164.09,67,4.6,4.6,0,0,0,168.57,64.36ZM158.18,63c-.2-.4-.4-.6-.61-.6s-.28.09-.28.29a1.15,1.15,0,0,0,1.13,1.2A2.24,2.24,0,0,0,158.18,63Zm.73-1.24c0-.53-.15-.79-.46-.79s-.39.26-.39.79a1.72,1.72,0,0,0,.44,1.17A1.62,1.62,0,0,0,158.91,61.77Zm-.33,2.85a1.8,1.8,0,0,0,.23.82c.2.35.42.53.65.53s.34-.13.34-.39c0-.49-.4-1-1.19-1.35A1.92,1.92,0,0,0,158.58,64.62Zm.92-2.25c-.21,0-.39.2-.55.6a2.12,2.12,0,0,0-.26.93,1.13,1.13,0,0,0,1.11-1.24A.26.26,0,0,0,159.5,62.37Zm6.64-3V57.77c0-1.67-.58-2.51-1.74-2.51s-1.74.83-1.74,2.47v1.68Z" transform="translate(-35 -15)"/><path class="cls-3" d="M180.9,52.3a11.11,11.11,0,0,1,1.38-.21l1,0a9.88,9.88,0,0,1,5.95,1.68,6.73,6.73,0,0,1,2.62,5.79,3.59,3.59,0,0,1,1.7,1.28,3.2,3.2,0,0,0-1.7,3.14v.64h.62L194,66v3.4H174.79l-1.54-1.43V64.58h2.1v-1.5a4.66,4.66,0,0,0-2-3.56,2.77,2.77,0,0,1,.61-.15l1,0,.4,0V57.16a6.32,6.32,0,0,0-.64-2.68,9.44,9.44,0,0,0-1.34-2.07l1.13,0c.51,0,1,.06,1.34.11a4.31,4.31,0,0,1,2.47,1.32A4.4,4.4,0,0,1,180.9,52.3ZM182.36,65h-2.07V63.54a5.87,5.87,0,0,1,.41-2.49,2.21,2.21,0,0,1,.48-.62l.65-.6a.75.75,0,0,0-.24,0h-.28a2.31,2.31,0,0,0-2.15,1.08,2.65,2.65,0,0,0-1.09-1.9,3,3,0,0,0-1.1,1.94,2.39,2.39,0,0,0-2.14-1.12h-.23a1,1,0,0,0-.26,0,7.05,7.05,0,0,1,1.11,1.43,5.3,5.3,0,0,1,.39,2.19V65h-2.05v2.45h8.57Zm-8.22,2.1V65.4h2.08V63.61a5.12,5.12,0,0,0-1-3.41,2.17,2.17,0,0,1,2,1.53,3.2,3.2,0,0,1,.89-2.17,2.87,2.87,0,0,1,.89,2.17c.52-1,1.18-1.57,2-1.57a2.46,2.46,0,0,0-.77,1.13,7.7,7.7,0,0,0-.24,2.25V65.4h2v1.72Zm2-13.88a3.09,3.09,0,0,0-1-.22l-.43-.08h-.38a7.42,7.42,0,0,1,1.11,1.79,6.83,6.83,0,0,1,.43,2.4v2.35a1.3,1.3,0,0,1,1,.68,2.75,2.75,0,0,1,1.26-1.79,3.21,3.21,0,0,1,1.25,1.75.85.85,0,0,1,.45-.4,1.5,1.5,0,0,1,.52-.16v-2a5.86,5.86,0,0,1,.45-2.57,2.25,2.25,0,0,1,2.17-1.32,2.07,2.07,0,0,1,2,1.12,4.57,4.57,0,0,1,.47,2.24v.53c0,.25,0,.47,0,.68a4.31,4.31,0,0,1-.05.68l-.07.47a1.59,1.59,0,0,1,1.18.75,2.77,2.77,0,0,1,1.25-1.79,3.33,3.33,0,0,1,1.26,1.75,1,1,0,0,1,.52-.44,1.88,1.88,0,0,1,.61-.23,6.65,6.65,0,0,0-2.28-5.5,6.78,6.78,0,0,0-4.48-1.46l-1.19.07c-.52.11-1,.24-1.48.38a4.08,4.08,0,0,0-2.51,2.1A3.81,3.81,0,0,0,176.12,53.24ZM177.66,63c-.21-.4-.43-.6-.65-.6s-.28.09-.28.29a1,1,0,0,0,.45.75,1.5,1.5,0,0,0,.78.42A1.88,1.88,0,0,0,177.66,63Zm.85-1.24c0-.53-.13-.79-.4-.79s-.41.26-.41.79a1.62,1.62,0,0,0,.41,1.17A1.61,1.61,0,0,0,178.51,61.77Zm-.81,3.52c0,.53.14.79.41.79s.4-.26.4-.79a1.61,1.61,0,0,0-.4-1.17A1.62,1.62,0,0,0,177.7,65.29Zm1.54-2.88q-.31,0-.69.6a1.84,1.84,0,0,0-.32.86,1.89,1.89,0,0,0,.85-.46,1,1,0,0,0,.44-.75C179.52,62.49,179.42,62.41,179.24,62.41Zm3-2.89a3.31,3.31,0,0,1,1.48,1.28,2.48,2.48,0,0,0-1.28,1.28,6.09,6.09,0,0,0-.2,1.86v.64h2.63V63.19a4.61,4.61,0,0,0-1.9-3.63,2.65,2.65,0,0,1,1.13-.22h.28a1.36,1.36,0,0,1,.29,0,1.2,1.2,0,0,0,0-.4,3.7,3.7,0,0,0,0-.6l0-1c0-1.42-.39-2.14-1.18-2.14a1.21,1.21,0,0,0-1.17.86,3.23,3.23,0,0,0-.16.79,1.76,1.76,0,0,0,0,.42ZM191.9,65h-2.05V63.54a6.09,6.09,0,0,1,.39-2.49,2.13,2.13,0,0,1,.5-.62l.65-.6a.89.89,0,0,0-.26,0h-.27a2.32,2.32,0,0,0-2.16,1.08,2.67,2.67,0,0,0-1.08-1.9,2.93,2.93,0,0,0-1.09,1.94,2.43,2.43,0,0,0-2.15-1.12h-.24a1,1,0,0,0-.24,0A6.48,6.48,0,0,1,185,61.26a5.3,5.3,0,0,1,.39,2.19V65h-2v2.45h8.57Zm-8.22,2.1V65.4h2.08V63.61a5.18,5.18,0,0,0-1-3.41,2.17,2.17,0,0,1,2,1.53,3.16,3.16,0,0,1,.89-2.17,2.9,2.9,0,0,1,.89,2.17c.51-1,1.17-1.57,2-1.57a2.65,2.65,0,0,0-.75,1.13,7.24,7.24,0,0,0-.26,2.25V65.4h2.08v1.72ZM187.22,63c-.22-.4-.44-.6-.65-.6s-.3.09-.3.29a1,1,0,0,0,.46.75,1.44,1.44,0,0,0,.77.42A1.92,1.92,0,0,0,187.22,63Zm.85-1.24c0-.53-.14-.79-.41-.79s-.4.26-.4.79a1.61,1.61,0,0,0,.4,1.17A1.62,1.62,0,0,0,188.07,61.77Zm-.81,3.52c0,.53.13.79.4.79s.41-.26.41-.79a1.62,1.62,0,0,0-.41-1.17A1.61,1.61,0,0,0,187.26,65.29Zm1.52-2.88c-.21,0-.43.2-.67.6a1.8,1.8,0,0,0-.34.86,1.75,1.75,0,0,0,.85-.46,1,1,0,0,0,.46-.75C189.08,62.49,189,62.41,188.78,62.41Z" transform="translate(-35 -15)"/><path class="cls-4" d="M207.16,68.91a4.76,4.76,0,0,1-3.32,1,6.82,6.82,0,0,1-5.26-2.32,10.11,10.11,0,0,1-2.47-4.83l-.14-.56a.63.63,0,0,1-.08-.28l-.31-1.07a3.94,3.94,0,0,0-.81-1.36,1.39,1.39,0,0,1,.45-.18,1.16,1.16,0,0,1,.4-.07,2.81,2.81,0,0,1,.45,0,7,7,0,0,1,2-4.93,7.33,7.33,0,0,1,5.71-2.24,4.31,4.31,0,0,1,2.17.4V48.94a6.43,6.43,0,0,0-.65-2.7A9.35,9.35,0,0,0,204,44.19a12.47,12.47,0,0,1,2.74.22,4,4,0,0,1,2.15,1.35,3.88,3.88,0,0,1,3.28-1.57,3.2,3.2,0,0,1,.85.64l.6.73c-.49.76-.73,2.23-.73,4.42v9.54a3.47,3.47,0,0,1,1.69,1.28,3.19,3.19,0,0,0-1.69,3.14v.64h.61L215,66v3.4h-7.37Zm5.78-1.44V65h-2.07V63.54a5.87,5.87,0,0,1,.41-2.49,2.42,2.42,0,0,1,.48-.62l.65-.6a.65.65,0,0,0-.24,0h-.29a2.31,2.31,0,0,0-2.14,1.08,2.66,2.66,0,0,0-1.1-1.9,2.93,2.93,0,0,0-1.09,1.94,2.21,2.21,0,0,0-1.9-1.12h-.23a1.09,1.09,0,0,0-.26,0,3.55,3.55,0,0,1,1.27,2.83,6.58,6.58,0,0,1-.42,2.49,2,2,0,0,1-2,1.4,2,2,0,0,1-1.94-1.26,4.13,4.13,0,0,1-.38-1.09,6,6,0,0,1-.08-.93,6.74,6.74,0,0,1,.93-3.68A3,3,0,0,0,200,60.84,2.6,2.6,0,0,0,198.94,59a2.48,2.48,0,0,0-.62.71,3.46,3.46,0,0,0-.47,1.23,2.06,2.06,0,0,0-2-1.32h-.2a.38.38,0,0,0-.24.06,4.74,4.74,0,0,1,.85,1.64l.43,1.86a7,7,0,0,0,2.59,3.93,6.36,6.36,0,0,0,3.86,1.24,6,6,0,0,0,2-.31,2.45,2.45,0,0,0,.61-.29,2.12,2.12,0,0,0,.42-.25Zm-6.4-.88a4,4,0,0,1-3.39,1.35,5.87,5.87,0,0,1-3.52-1.11,6.87,6.87,0,0,1-2.51-3.78l-.37-1.54a4.38,4.38,0,0,0-.56-1.39,1.62,1.62,0,0,1,1.09.57,3.78,3.78,0,0,1,.73,1,2.66,2.66,0,0,1,.93-2.13,3.3,3.3,0,0,1,.93,2.13c.56-1,1.21-1.57,1.93-1.57a8.08,8.08,0,0,0-.59,3.15v.49l.08.56a5.55,5.55,0,0,0,.35,1.19A2.49,2.49,0,0,0,204,67a2.41,2.41,0,0,0,2.27-1.49,6.5,6.5,0,0,0,.55-2.82A3.89,3.89,0,0,0,206,60.2a1.6,1.6,0,0,1,1.15.53,3.93,3.93,0,0,1,.59,1,3.3,3.3,0,0,1,.89-2.17,3,3,0,0,1,.91,2.17c.5-1,1.15-1.57,2-1.57a2.54,2.54,0,0,0-.77,1.13,7.77,7.77,0,0,0-.23,2.25V65.4h2v1.72h-6Zm-.11-7.11a1.28,1.28,0,0,1,1,.68,2.77,2.77,0,0,1,1.25-1.79,3.23,3.23,0,0,1,1.26,1.75.87.87,0,0,1,.44-.4,1.63,1.63,0,0,1,.53-.16V48.91a8.63,8.63,0,0,1,.89-4.28c-1.19,0-2.23.85-3.12,2.56a4.91,4.91,0,0,0-1.7-2,4.32,4.32,0,0,0-2.06-.49,6.28,6.28,0,0,1,1.09,1.8,6.56,6.56,0,0,1,.46,2.4v4.4a3.81,3.81,0,0,0-2.63-.79,7,7,0,0,0-5.18,2,7.16,7.16,0,0,0-2.07,4.86,1.38,1.38,0,0,1,1.12.78,3.5,3.5,0,0,1,.58-1.11,2.53,2.53,0,0,1,.69-.64,2.47,2.47,0,0,1,1.28,1.75,2.72,2.72,0,0,1,.54-.53,1.34,1.34,0,0,1,.57-.22,12,12,0,0,1-.12-1.86,5.32,5.32,0,0,1,.51-2.54A2.36,2.36,0,0,1,204,53.69a2.15,2.15,0,0,1,2,1,4.46,4.46,0,0,1,.46,2.21ZM198.7,63c-.2-.4-.4-.6-.61-.6s-.28.09-.28.29a1.15,1.15,0,0,0,1.13,1.2A2.24,2.24,0,0,0,198.7,63Zm.73-1.24c0-.53-.15-.79-.45-.79s-.4.26-.4.79a1.72,1.72,0,0,0,.44,1.17A1.62,1.62,0,0,0,199.43,61.77Zm-.34,2.85a1.62,1.62,0,0,0,.34.82c.21.35.45.53.71.53s.34-.13.34-.39-.17-.46-.5-.74a2.88,2.88,0,0,0-.84-.61A1.27,1.27,0,0,0,199.09,64.62Zm.93-2.25c-.21,0-.39.2-.55.6a2.12,2.12,0,0,0-.26.93,1.13,1.13,0,0,0,1.11-1.24A.26.26,0,0,0,200,62.37Zm4.17-2.85a4.85,4.85,0,0,1,1.19-.18h.27a.85.85,0,0,1,.28,0v-1.9a3.88,3.88,0,0,0-.2-1.46,1.08,1.08,0,0,0-1.12-.75c-1,0-1.54.75-1.54,2.25l0,.93a5.87,5.87,0,0,0,0,.9,1.71,1.71,0,0,1,1.38.86,6.37,6.37,0,0,0-.89,3.49c0,1.49.26,2.24.79,2.24s.95-.39,1.22-1.17a6.72,6.72,0,0,0,.28-2.1A3.79,3.79,0,0,0,204.19,59.52ZM208.24,63c-.21-.4-.42-.6-.65-.6a.25.25,0,0,0-.28.29,1,1,0,0,0,.44.75,1.6,1.6,0,0,0,.77.42A1.92,1.92,0,0,0,208.24,63Zm.85-1.24c0-.53-.13-.79-.39-.79s-.42.26-.42.79a1.58,1.58,0,0,0,.42,1.17A1.65,1.65,0,0,0,209.09,61.77Zm-.81,3.52c0,.53.14.79.42.79s.39-.26.39-.79a1.65,1.65,0,0,0-.39-1.17A1.58,1.58,0,0,0,208.28,65.29Zm1.54-2.88q-.33,0-.69.6a1.8,1.8,0,0,0-.31.86,1.86,1.86,0,0,0,.84-.46,1,1,0,0,0,.44-.75C210.1,62.49,210,62.41,209.82,62.41Z" transform="translate(-35 -15)"/></svg>